<svg width="16" height="16" viewBox="0 0 16 16" fill="none" xmlns="http://www.w3.org/2000/svg">
<g id="&#229;&#143;&#137;">
<circle id="&#230;&#164;&#173;&#229;&#156;&#134;&#229;&#189;&#162;" cx="8" cy="8" r="8" fill="#CCCCCC"/>
<path id="&#229;&#144;&#136;&#229;&#185;&#182;&#229;&#189;&#162;&#231;&#138;&#182;" fill-rule="evenodd" clip-rule="evenodd" d="M11.5355 4.46522C11.2426 4.17233 10.7678 4.17233 10.4749 4.46522L8 6.9401L5.52513 4.46522C5.23223 4.17233 4.75736 4.17233 4.46447 4.46522C4.17157 4.75811 4.17157 5.23299 4.46447 5.52588L6.93934 8.00076L4.46447 10.4756C4.17157 10.7685 4.17157 11.2434 4.46447 11.5363C4.75736 11.8292 5.23223 11.8292 5.52513 11.5363L8 9.06142L10.4749 11.5363C10.7678 11.8292 11.2426 11.8292 11.5355 11.5363C11.8284 11.2434 11.8284 10.7685 11.5355 10.4756L9.06066 8.00076L11.5355 5.52588C11.8284 5.23299 11.8284 4.75811 11.5355 4.46522Z" fill="white"/>
</g>
</svg>
